<svg viewBox="0 0 1608 557.9" xmlns="http://www.w3.org/2000/svg"><style>.st0{fill:#fff;stroke:#fff;stroke-width:14;stroke-miterlimit:10}.st1{fill:#ff6c00}</style><path d="M549.3 218.7c-31.6 0-55.4 25-55.4 58.2s24 58.2 55.9 58.2c31.6 0 55.4-25 55.4-58.2s-24.1-58.2-55.9-58.2zm159.9-173h-686v465h686l162-232-162-233zM381.9 350.5l-1.6 1.3c-25.6 21.7-55.3 32.7-88.1 32.7-31.1 0-59.1-10.9-78.9-30.6-19.6-19.5-30.5-46.9-30.5-77.1 0-29 11-56 30.9-76 20.3-20.4 48-31.6 78.1-31.6 34 0 57.5 8.2 81.3 28.4l3.4 2.9-33.4 40.2-3.5-2.9c-14.6-12.2-27.3-19.2-49.3-19.2-29.1 0-52.8 26.1-52.8 58.2 0 34.1 23.5 58.8 55.9 58.8 14.3 0 26.9-3.4 36.8-9.8v-21.6H286v-46.9h95.6v93.2zm246.8 2.5c-20.6 20.4-48.8 31.6-79.4 31.6-30.7 0-58.8-11.2-79.1-31.4-20.1-19.9-31.1-47-31.1-76.3 0-29 11.2-56 31.4-76.1 20.6-20.4 48.8-31.6 79.4-31.6 30.7 0 58.8 11.2 79.1 31.4 20.1 19.9 31.1 47 31.1 76.3 0 29-11.2 56-31.4 76.1z"/><path class="st0" d="M187.1 277.2c0-55.7 43.4-101.4 102.8-101.4 35.3 0 56.6 9.5 77 26.9l-27.2 32.8c-15.1-12.6-28.6-19.9-51.2-19.9-31.4 0-56.3 27.7-56.3 61.6 0 35.8 24.6 62.2 59.4 62.2 15.7 0 29.7-3.9 40.6-11.8v-28h-43.4v-37.2h85.1v85.1c-20.2 17.1-47.9 31.1-83.7 31.1-61.1 0-103.1-42.8-103.1-101.4zm260 1.5c0-55.7 44-101.4 104.4-101.4s103.9 45.1 103.9 101.4c0 55.7-44 101.4-104.4 101.4-60.5-.1-103.9-45.2-103.9-101.4zm163.2 0c0-33.6-24.6-61.6-59.4-61.6-34.7 0-58.8 27.4-58.8 61.6 0 33.6 24.6 61.6 59.4 61.6s58.8-27.5 58.8-61.6z"/><path class="st1" d="M887.6 43.3h685.2v465H887.6z"/><path class="st0" d="M1098.7 182.7h43.1v196h-43.1v-196zm170.7 39.7h-59.6v-39.8h162.4v39.8h-59.6v156.2h-43.1V222.4z"/></svg>